<svg xmlns="http://www.w3.org/2000/svg" width="1240" height="1240"><path d="M805.5 97.99c-7.145.419-13.416 1.329-15.5 2.246-1.925.848-5.975 1.866-9 2.261-3.025.395-6.255 1.386-7.178 2.201-.924.815-3.579 1.909-5.9 2.431-2.322.522-5.392 1.775-6.822 2.785-1.43 1.011-4.031 2.147-5.781 2.526-1.749.379-3.739 1.361-4.42 2.182-.682.821-2.626 2.167-4.319 2.989-9.836 4.778-20.752 13.604-33.438 27.038-10.644 11.272-11.202 11.904-12.534 14.188-.61 1.044-1.968 3.195-3.018 4.781-5.778 8.718-6.59 10.081-6.59 11.063 0 .591-.652 1.615-1.449 2.277-.797.661-1.993 2.853-2.658 4.872-.665 2.018-1.996 4.795-2.957 6.17-.962 1.375-2.049 4.3-2.416 6.5s-1.534 5.488-2.593 7.307c-1.06 1.819-1.927 4.868-1.927 6.775s-.97 6.044-2.156 9.193c-1.91 5.07-2.207 8.283-2.598 28.085-.405 20.47-.271 22.878 1.584 28.5 1.114 3.377 2.486 9.231 3.05 13.008.563 3.778 1.672 7.603 2.463 8.5.792.898 1.751 3.531 2.131 5.853.381 2.321 1.527 5.281 2.547 6.578 1.02 1.298 2.177 3.673 2.57 5.28.392 1.607 1.545 3.994 2.561 5.306 1.017 1.312 1.856 2.887 1.866 3.5.027 1.664 12.377 20.077 16.845 25.115 2.826 3.186 20.038 19.371 22.137 20.815 1.375.947 4.975 3.512 8 5.701 3.025 2.19 5.993 3.981 6.595 3.982.602.001 1.886.876 2.854 1.945.967 1.069 3.174 2.243 4.905 2.608 1.73.366 4.046 1.476 5.146 2.468 1.1.991 3.86 2.296 6.134 2.899 2.273.603 4.667 1.74 5.319 2.526.653.786 3.743 1.735 6.867 2.108s7.03 1.48 8.68 2.46c1.988 1.18 6.205 2.011 12.5 2.463 5.225.376 11.3 1.156 13.5 1.735 5.162 1.357 23.466 1.406 26.028.069 1.085-.565 6.687-1.353 12.451-1.75 6.743-.464 11.734-1.35 14-2.485 1.936-.969 5.525-2.071 7.975-2.448 2.449-.377 5.824-1.507 7.5-2.512 1.675-1.005 4.36-2.138 5.967-2.518 1.607-.379 3.99-1.531 5.297-2.559 1.307-1.028 3.658-2.15 5.225-2.495 1.567-.344 3.641-1.5 4.608-2.569.968-1.069 2.252-1.951 2.854-1.961 1.203-.02 6.138-3.275 14.595-9.625 9.013-6.768 35-35.074 35-38.124 0-.464 1.125-2.369 2.5-4.233 1.375-1.864 2.5-4.114 2.5-5 0-.886 1.125-3.136 2.5-5 1.375-1.864 2.5-4.14 2.5-5.059 0-.919.885-2.796 1.967-4.171 1.081-1.376 2.264-4.474 2.627-6.885.363-2.412 1.492-5.77 2.508-7.462 1.016-1.692 2.287-6.642 2.824-11 .537-4.358 1.726-11.973 2.641-16.923 1.805-9.758 1.528-29.801-.504-36.489-.584-1.919-1.497-6.973-2.031-11.23-.534-4.258-1.885-9.532-3.001-11.721-1.117-2.189-2.035-5.011-2.04-6.27-.005-1.26-1.116-4.54-2.469-7.29-1.353-2.75-2.474-5.7-2.491-6.556-.017-.855-1.156-3.08-2.531-4.944-1.375-1.864-2.508-3.864-2.518-4.444-.019-1.119-4.615-8.369-7.959-12.556-1.098-1.375-2.002-2.901-2.01-3.392-.037-2.51-26.001-29.309-32.075-33.108-6.234-3.899-8.627-5.541-9.938-6.821-.825-.805-3.075-2.196-5-3.089a147.494 147.494 0 01-6.5-3.243c-6.955-3.75-10.48-5.347-11.799-5.347-.772 0-3.42-1.072-5.885-2.383-2.466-1.311-6.92-2.716-9.899-3.121-2.979-.406-7.442-1.522-9.917-2.48-5.392-2.087-31.577-3.138-50.5-2.026M140 339.552c-3.575.745-8.3 1.386-10.5 1.423-2.2.038-5.97.963-8.379 2.056-2.408 1.092-6.233 2.282-8.5 2.643-2.266.36-6.101 1.706-8.52 2.991-2.419 1.284-5.177 2.335-6.127 2.335-.951 0-2.288.673-2.97 1.495-.683.823-2.981 2.017-5.107 2.654-2.125.637-4.617 1.989-5.536 3.004-.919 1.016-2.214 1.847-2.878 1.847-.665 0-2.907 1.35-4.983 3-2.076 1.65-4.238 3-4.804 3-.565 0-1.741.674-2.612 1.497-7.074 6.686-12.009 10.966-14.365 12.458-1.53.969-5.965 5.538-9.856 10.153-3.891 4.616-7.701 8.752-8.468 9.192-.767.44-1.395 1.268-1.395 1.842 0 .573-.926 2.238-2.057 3.7-3.47 4.483-7.906 11.6-7.925 12.714-.01.58-1.143 2.58-2.518 4.444-1.375 1.864-2.5 4.14-2.5 5.059 0 .919-.863 2.768-1.918 4.109-1.055 1.341-2.234 4.214-2.621 6.385-.388 2.171-1.502 5.297-2.477 6.947-.975 1.65-2.09 4.943-2.477 7.317-.388 2.374-1.643 6.874-2.79 10-1.939 5.287-2.085 7.775-2.093 35.683-.008 28.012.128 30.331 2.051 35 1.132 2.75 2.383 7.25 2.78 10 .396 2.75 1.561 6.371 2.588 8.046 1.028 1.676 2.167 4.917 2.533 7.204.366 2.287 1.502 4.916 2.525 5.841 1.023.926 2.138 3.167 2.478 4.981.341 1.813 1.474 4.071 2.52 5.018 1.046.946 1.901 2.463 1.901 3.371 0 .908 1.125 3.175 2.5 5.039 1.375 1.864 2.5 4.114 2.5 5 0 .886 1.125 3.136 2.5 5 1.375 1.864 2.5 4.114 2.5 5 0 .886 1.125 3.136 2.5 5 1.375 1.864 2.5 4.024 2.5 4.8 0 .776 1.125 2.748 2.5 4.382 1.375 1.634 2.5 3.776 2.5 4.76 0 .983.838 2.861 1.862 4.173 1.025 1.312 2.212 3.51 2.638 4.885.426 1.375 1.582 3.534 2.568 4.797.987 1.263 2.079 3.595 2.427 5.181.349 1.586 1.257 3.401 2.018 4.033.762.632 1.923 2.8 2.581 4.819.658 2.018 2 4.704 2.982 5.967.982 1.263 2.067 3.579 2.412 5.146.344 1.567 1.5 3.641 2.569 4.608 1.069.968 1.943 2.344 1.943 3.06 0 .715 1.125 2.958 2.5 4.984s2.5 4.276 2.5 5c0 .724 1.125 2.974 2.5 5s2.5 4.466 2.5 5.422c0 .956.652 2.279 1.449 2.941.797.661 1.987 2.853 2.645 4.872.658 2.018 2.031 4.743 3.051 6.055 1.02 1.312 1.855 2.912 1.855 3.556 0 .644 1.101 2.663 2.448 4.488 1.346 1.825 2.721 4.565 3.056 6.091.335 1.525 1.484 3.564 2.553 4.531 1.069.968 1.943 2.502 1.943 3.41 0 .908 1.125 3.175 2.5 5.039 1.375 1.864 2.5 4.14 2.5 5.059 0 .919.872 2.78 1.938 4.135 1.066 1.355 2.25 3.778 2.631 5.385.382 1.607 1.501 3.821 2.488 4.921.987 1.1 2.122 3.35 2.521 5s1.783 4.272 3.074 5.827c1.291 1.554 2.348 3.622 2.348 4.595 0 .972.891 2.575 1.98 3.56 1.09.986 2.259 3.276 2.599 5.09.341 1.813 1.449 4.048 2.463 4.966 1.015.918 2.144 3.085 2.509 4.816.366 1.73 1.457 4.046 2.426 5.146.968 1.1 2.081 3.35 2.473 5 .392 1.65 1.576 3.805 2.631 4.789 1.056.984 1.919 2.611 1.919 3.615s.85 2.907 1.889 4.228c1.039 1.321 2.622 3.969 3.518 5.885.896 1.916 2.256 4.608 3.023 5.983a67.722 67.722 0 012.475 5c.594 1.375 1.523 3.175 2.063 4 .541.825 1.66 3.075 2.488 5 .827 1.925 1.939 4.175 2.472 5 1.234 1.912 3.562 6.518 5.56 11 .858 1.925 2.009 4.175 2.556 5 .548.825 1.714 3.075 2.59 5 .877 1.925 2.443 4.694 3.48 6.154S171 861.439 171 862.21c0 .771 1.125 2.926 2.5 4.79 1.375 1.864 2.5 4 2.5 4.747 0 .748 1.125 3.015 2.5 5.038 1.375 2.024 2.5 4.42 2.5 5.325 0 .905.652 2.186 1.449 2.848.797.661 1.979 2.853 2.626 4.872.648 2.018 1.79 4.374 2.539 5.235.749.861 1.879 3.111 2.512 5 .633 1.889 1.937 4.335 2.898 5.435.96 1.1 2.075 3.125 2.476 4.5.401 1.375 1.519 3.4 2.484 4.5.964 1.1 2.071 3.35 2.459 5 .388 1.65 1.513 3.9 2.5 5 .987 1.1 2.101 3.292 2.475 4.871.374 1.579 1.333 3.523 2.13 4.32.797.797 1.734 2.655 2.082 4.129.348 1.474 1.44 3.58 2.427 4.68.987 1.1 2.122 3.35 2.521 5s1.783 4.272 3.074 5.827c1.291 1.554 2.348 3.622 2.348 4.595 0 .972.891 2.575 1.98 3.56 1.09.986 2.259 3.276 2.599 5.09.341 1.813 1.449 4.048 2.463 4.966 1.015.918 2.144 3.085 2.509 4.816.366 1.73 1.468 4.046 2.449 5.146.981 1.1 2.083 3.416 2.449 5.146.365 1.731 1.494 3.898 2.509 4.816 1.014.918 2.134 3.214 2.488 5.103.355 1.889 1.09 3.435 1.635 3.435.544 0 1.885 1.913 2.98 4.25 1.094 2.337 2.653 5.487 3.464 7 .811 1.513 2.136 3.987 2.944 5.5 1.411 2.641 2.758 5.473 4.638 9.75.483 1.1 1.321 2.675 1.861 3.5.541.825 1.66 3.075 2.488 5 .827 1.925 1.952 4.175 2.5 5 .547.825 1.672 3.075 2.5 5 1.507 3.507 2.04 4.447 6.269 11.054 1.251 1.954 2.275 4.247 2.275 5.095 0 .847.889 2.345 1.974 3.328 1.086.983 2.273 2.74 2.637 3.905.365 1.165 1.614 3.337 2.776 4.828 1.162 1.49 4.363 5.66 7.113 9.266 5.117 6.709 16.961 19.524 18.045 19.524.331 0 3.483 2.362 7.003 5.25 9.786 8.028 12.164 9.75 13.466 9.75.658 0 2.534 1.125 4.168 2.5 1.634 1.375 3.551 2.5 4.26 2.5.708 0 2.361.835 3.673 1.855 1.312 1.02 4.037 2.393 6.055 3.051 2.019.658 4.193 1.826 4.832 2.596.639.77 3.262 1.7 5.83 2.067 2.567.367 6.018 1.443 7.668 2.392 1.65.95 6.106 2.27 9.902 2.935 3.796.665 8.161 1.861 9.7 2.657 2.252 1.164 8.325 1.443 31.098 1.425 25.45-.02 28.713-.21 32.405-1.886 2.258-1.026 6.533-2.188 9.5-2.583 2.967-.395 6.745-1.517 8.395-2.492 1.65-.976 4.776-2.09 6.947-2.478 2.171-.387 5.044-1.566 6.385-2.621 1.341-1.055 3.19-1.918 4.109-1.918s3.195-1.125 5.059-2.5c1.864-1.375 3.864-2.508 4.444-2.518 1.114-.019 8.231-4.455 12.714-7.925 1.462-1.131 3.037-2.068 3.5-2.08 2.544-.071 32.342-29.412 32.342-31.846 0-.613.9-1.676 2-2.363s2-1.754 2-2.371 1.35-2.821 3-4.897 3-4.318 3-4.983c0-.664.9-2.022 2-3.017 1.1-.995 2-2.424 2-3.174s1.35-3.894 3-6.986c1.65-3.092 3-6.275 3-7.073s.9-2.596 2-3.994c1.1-1.399 2-3.598 2-4.888s1.084-5.167 2.409-8.615c1.326-3.449 2.881-9.645 3.458-13.77.576-4.125 1.726-10.425 2.555-14 2.484-10.707 1.57-36.21-1.513-42.212-.483-.942-1.313-5.536-1.844-10.21-.531-4.673-1.63-9.528-2.442-10.788-.811-1.259-1.775-4.09-2.142-6.29-.368-2.2-1.469-5.143-2.449-6.54-.979-1.396-2.121-4.096-2.537-6-.415-1.903-1.566-4.494-2.556-5.757s-2.086-3.595-2.434-5.181c-.349-1.586-1.257-3.401-2.018-4.033-.762-.632-1.923-2.8-2.581-4.819-.658-2.018-2.031-4.743-3.051-6.055-1.02-1.312-1.855-2.912-1.855-3.556 0-.644-1.125-2.695-2.5-4.559-1.375-1.864-2.5-4.114-2.5-5 0-.886-1.125-3.136-2.5-5-1.375-1.864-2.5-4.114-2.5-5 0-.886-1.125-3.136-2.5-5-1.375-1.864-2.5-3.956-2.5-4.65 0-.694-1.125-2.919-2.5-4.945-1.375-2.026-2.5-4.452-2.5-5.39 0-.938-.855-2.479-1.901-3.425-1.046-.947-2.19-3.261-2.543-5.143-.353-1.883-1.486-3.874-2.518-4.427-1.031-.552-2.186-2.47-2.565-4.262-.379-1.792-1.481-4.158-2.45-5.258-.968-1.1-2.078-3.35-2.466-5-.388-1.65-1.513-3.9-2.5-5-.987-1.1-2.112-3.35-2.5-5-.388-1.65-1.513-3.9-2.5-5-.987-1.1-2.106-3.314-2.488-4.921-.381-1.607-1.565-4.03-2.631-5.385-1.066-1.355-1.938-3.248-1.938-4.206 0-.959-.736-2.354-1.637-3.101-.9-.747-2.469-3.165-3.487-5.373-1.018-2.208-2.296-4.689-2.839-5.514-.544-.825-1.665-3.075-2.493-5-.827-1.925-1.952-4.175-2.5-5-.547-.825-1.672-3.075-2.5-5-.827-1.925-1.952-4.175-2.5-5-.547-.825-1.672-3.075-2.5-5-.827-1.925-1.915-4.175-2.417-5-.502-.825-1.437-2.625-2.078-4-.64-1.375-2.462-4.75-4.049-7.5-2.87-4.973-3.766-6.727-5.879-11.5-.608-1.375-1.549-3.175-2.089-4-.541-.825-1.686-3.075-2.544-5-1.998-4.482-4.326-9.088-5.56-11-.533-.825-1.645-3.075-2.472-5-.828-1.925-1.949-4.175-2.493-5-.543-.825-1.845-3.363-2.893-5.64-1.047-2.277-2.359-4.421-2.914-4.764-.556-.343-1.558-2.305-2.228-4.36-.671-2.055-2.053-4.809-3.073-6.121-1.02-1.312-1.855-3.137-1.855-4.056s-1.125-3.195-2.5-5.059c-1.375-1.864-2.5-4.114-2.5-5 0-.886-1.125-3.136-2.5-5-1.375-1.864-2.5-4.132-2.5-5.041 0-.909-.912-2.705-2.027-3.99-1.115-1.286-2.309-3.492-2.652-4.903-.344-1.411-1.682-3.838-2.973-5.393-1.291-1.554-2.348-3.622-2.348-4.595 0-.972-.855-2.542-1.901-3.488-1.046-.947-2.179-3.205-2.52-5.018-.34-1.814-1.465-4.064-2.5-5-1.034-.937-2.159-3.187-2.5-5-.34-1.814-1.465-4.064-2.5-5-1.034-.937-2.162-3.203-2.506-5.037-.344-1.834-1.286-3.882-2.092-4.551-.807-.669-1.937-2.965-2.512-5.1-.576-2.136-1.495-3.884-2.043-3.884s-1.875-1.913-2.949-4.25c-1.073-2.337-2.397-4.925-2.94-5.75-.544-.825-1.665-3.075-2.493-5-.827-1.925-1.952-4.175-2.5-5-.547-.825-1.672-3.075-2.5-5-.827-1.925-1.952-4.175-2.5-5-.547-.825-1.672-3.075-2.5-5-.827-1.925-1.908-4.175-2.403-5-.494-.825-1.637-3.075-2.541-5-.903-1.925-2.736-5.3-4.073-7.5-1.337-2.2-2.942-5.125-3.567-6.5a87.285 87.285 0 00-2.517-5c-1.343-2.431-2.392-4.618-4.436-9.25-.546-1.237-1.435-2.925-1.975-3.75-.541-.825-1.66-3.075-2.488-5-.827-1.925-1.952-4.175-2.5-5-.547-.825-1.672-3.075-2.5-5-.827-1.925-2.064-4.4-2.749-5.5l-3.42-5.5c-1.196-1.925-2.507-4.625-2.913-6-.405-1.375-1.575-3.573-2.6-4.885-1.024-1.312-1.862-3.137-1.862-4.056s-1.125-3.195-2.5-5.059c-1.375-1.864-2.5-4.114-2.5-5 0-.886-1.125-3.136-2.5-5-1.375-1.864-2.5-4.114-2.5-5 0-.886-1.125-3.136-2.5-5-1.375-1.864-2.5-4.024-2.5-4.8 0-.776-1.125-2.748-2.5-4.382-1.375-1.634-2.5-3.768-2.5-4.742 0-.973-.912-2.822-2.027-4.107-1.115-1.286-2.299-3.492-2.631-4.903-.333-1.411-1.394-3.466-2.358-4.566-.965-1.1-2.092-3.125-2.506-4.5-.753-2.506-3.751-6.726-7.484-10.535-1.097-1.12-1.994-2.408-1.994-2.863 0-2.368-18.692-22.038-26.364-27.744-5.94-4.417-7.997-5.982-12.136-9.23-1.65-1.295-4.125-2.693-5.5-3.106-1.375-.414-3.4-1.538-4.5-2.498-1.1-.961-3.476-2.241-5.28-2.844-1.804-.603-3.919-1.736-4.701-2.518-.781-.781-3.115-1.739-5.186-2.127-2.071-.389-4.906-1.503-6.299-2.477-1.394-.973-4.494-2.072-6.889-2.442-2.395-.37-5.77-1.416-7.5-2.323-7.805-4.096-52.822-6.623-66.645-3.741m411.5-.485c-1.65.492-6.375 1.18-10.5 1.53-4.125.35-9.432 1.467-11.793 2.482-2.361 1.016-5.961 2.149-8 2.52-2.039.37-5.728 1.737-8.199 3.037-2.471 1.3-5.222 2.364-6.115 2.364-.893 0-2.732.872-4.087 1.938-1.355 1.066-3.633 2.231-5.061 2.59-1.429.359-3.376 1.511-4.326 2.562-.951 1.05-2.504 1.91-3.452 1.91-.947 0-2.307.705-3.022 1.566-.715.861-2.682 2.273-4.372 3.138-1.69.865-5.323 3.417-8.073 5.672-5.582 4.575-26.028 24.997-28.759 28.724-.967 1.32-2.88 3.815-4.25 5.544-1.37 1.73-2.491 3.608-2.491 4.174 0 .566-1.063 2.301-2.363 3.855-1.3 1.555-2.702 3.952-3.115 5.327-.414 1.375-1.541 3.4-2.506 4.5-.964 1.1-2.065 3.314-2.447 4.921-.381 1.607-1.565 4.03-2.631 5.385-1.066 1.355-1.938 3.461-1.938 4.68 0 1.219-1.051 4.196-2.335 6.615-1.284 2.419-2.61 6.737-2.946 9.595-.337 2.858-1.364 6.65-2.282 8.427-4.404 8.516-4.057 61.961.466 71.877 1.129 2.475 2.063 6.079 2.075 8.008.012 1.929 1.082 5.529 2.377 8 1.295 2.471 2.641 5.991 2.991 7.823.35 1.832 1.54 4.48 2.645 5.885 1.105 1.405 2.009 3.332 2.009 4.284s.904 2.879 2.009 4.284c1.105 1.405 2.281 3.917 2.615 5.584.333 1.666 1.445 3.79 2.471 4.718 1.026.929 2.152 3.214 2.502 5.078.35 1.865 1.447 3.824 2.438 4.355.991.53 2.093 2.287 2.448 3.904.355 1.616 1.269 3.456 2.03 4.088.762.632 1.915 2.8 2.562 4.819.648 2.018 1.79 4.374 2.539 5.235.749.861 1.889 3.111 2.534 5 .644 1.889 2 4.508 3.012 5.82 1.012 1.312 1.84 3.137 1.84 4.056s1.125 3.195 2.5 5.059c1.375 1.864 2.5 4.064 2.5 4.891 0 .826 1.024 3.101 2.275 5.055 4.229 6.607 4.762 7.547 6.269 11.054.828 1.925 1.953 4.175 2.5 5 .548.825 1.673 3.075 2.5 5 .828 1.925 1.953 4.175 2.5 5 .548.825 1.673 3.075 2.5 5 .828 1.925 1.947 4.175 2.488 5 .54.825 1.469 2.625 2.063 4a67.722 67.722 0 002.475 5c.767 1.375 2.127 4.067 3.023 5.983.896 1.916 2.479 4.564 3.518 5.885 1.039 1.321 1.889 3.171 1.889 4.112 0 .94.891 2.517 1.98 3.502 1.09.986 2.259 3.276 2.599 5.09.341 1.813 1.449 4.048 2.463 4.966 1.015.918 2.144 3.085 2.509 4.816.366 1.73 1.468 4.046 2.449 5.146.981 1.1 2.083 3.416 2.449 5.146.365 1.731 1.539 3.938 2.608 4.905 1.069.968 1.943 2.529 1.943 3.469 0 .941.916 2.875 2.036 4.298 1.119 1.424 2.532 4.072 3.138 5.885.607 1.813 1.882 4.197 2.833 5.297.952 1.1 2.026 3.249 2.387 4.775.361 1.527 1.545 3.664 2.631 4.75 1.086 1.086 1.975 2.788 1.975 3.781 0 .993 1.125 3.33 2.5 5.194 1.375 1.864 2.5 4.356 2.5 5.539 0 1.183.874 2.942 1.943 3.91 1.069.967 2.243 3.174 2.608 4.905.366 1.73 1.473 4.046 2.461 5.146.988 1.1 2.531 3.575 3.428 5.5 2.349 5.037 4.518 9.273 5.632 11 .533.825 1.645 3.075 2.472 5 .828 1.925 1.947 4.175 2.488 5 .54.825 1.469 2.625 2.063 4a70.392 70.392 0 002.462 5 86.256 86.256 0 012.412 4.75c2.644 5.771 3.285 7.007 5.572 10.75 1.345 2.2 3.134 5.575 3.976 7.5.842 1.925 1.98 4.175 2.527 5 .548.825 1.673 3.075 2.5 5 .828 1.925 1.953 4.175 2.5 5 .548.825 1.673 3.075 2.5 5 .828 1.925 1.953 4.175 2.5 5 .548.825 1.673 3.075 2.5 5 .828 1.925 1.953 4.175 2.5 5 .548.825 1.712 3.067 2.587 4.983.875 1.916 2.441 4.564 3.48 5.885 1.039 1.321 1.889 2.996 1.889 3.722 0 .727 1.125 2.979 2.5 5.005s2.5 4.452 2.5 5.39c0 .938.891 2.512 1.98 3.497 1.09.986 2.259 3.276 2.599 5.09.341 1.813 1.449 4.048 2.463 4.966 1.015.918 2.144 3.085 2.509 4.816.366 1.73 1.468 4.046 2.449 5.146.981 1.1 2.1 3.493 2.486 5.318.387 1.824 1.313 3.552 2.06 3.838.746.286 1.884 2.169 2.529 4.182.644 2.014 1.967 4.562 2.94 5.662.973 1.1 2.068 3.416 2.434 5.146.365 1.731 1.494 3.898 2.509 4.816 1.014.918 2.122 3.153 2.463 4.966.34 1.814 1.509 4.104 2.599 5.09 1.089.985 1.98 2.777 1.98 3.982s.874 2.981 1.943 3.949c1.069.967 2.243 3.174 2.608 4.905.366 1.73 1.473 4.046 2.461 5.146.988 1.1 2.505 3.575 3.372 5.5.867 1.925 2.024 4.175 2.572 5 .547.825 1.672 3.075 2.5 5 .827 1.925 1.952 4.175 2.5 5 .547.825 1.698 3.075 2.556 5 1.964 4.407 4.308 9.054 5.547 11 .526.825 1.442 2.625 2.036 4a67.722 67.722 0 002.475 5c.767 1.375 2.127 4.067 3.023 5.983.896 1.916 2.479 4.564 3.518 5.885 1.039 1.321 1.889 3.18 1.889 4.132 0 .952.872 2.839 1.938 4.194 1.066 1.355 2.231 3.633 2.59 5.061.359 1.429 1.511 3.376 2.562 4.326 1.05.951 1.91 2.297 1.91 2.991s2.362 4.205 5.25 7.801 6.375 8.152 7.75 10.125c2.297 3.294 12.57 14.096 16.544 17.396 4.379 3.635 10.545 8.106 11.179 8.106.389 0 1.622.913 2.742 2.029 2.745 2.736 10.743 7.93 12.246 7.953.666.01 2.016.866 3 1.902.984 1.035 3.205 2.186 4.935 2.556 1.731.37 3.938 1.548 4.905 2.617.968 1.069 2.705 1.943 3.862 1.943s4.216 1.125 6.799 2.5 5.972 2.5 7.531 2.5c1.559 0 4.617.951 6.796 2.113 3.626 1.934 11.06 3.046 28.332 4.235 2.065.142 4.064 1.088 5.16 2.442 1.623 2.005 2.69 2.21 11.469 2.21 8.579 0 9.87-.235 11.354-2.068 1.767-2.183 10.475-3.829 20.646-3.903 3.148-.023 6.188-.761 8.208-1.993 1.765-1.076 5.59-2.263 8.5-2.637 2.911-.375 6.486-1.518 7.946-2.54s3.26-1.861 4-1.863c.74-.002 4.046-1.35 7.346-2.996s6.493-2.994 7.095-2.996c.602-.002 1.91-.904 2.905-2.004.995-1.1 2.355-2 3.02-2 .666 0 2.485-1.013 4.043-2.25 1.557-1.237 3.845-2.7 5.084-3.25 1.238-.55 6.986-4.951 12.772-9.78 9.875-8.242 26.267-26.355 29.456-32.549.756-1.469 2.036-3.427 2.843-4.352 1.516-1.737 4.274-6.457 6.322-10.819.646-1.375 1.585-3.175 2.087-4 .502-.825 1.59-3.075 2.417-5 .828-1.925 1.953-4.175 2.5-5 .548-.825 1.673-3.075 2.5-5 .828-1.925 1.955-4.175 2.505-5 .551-.825 1.884-3.353 2.964-5.618s2.597-4.643 3.371-5.286c.774-.642 1.681-2.628 2.016-4.413.335-1.785 1.507-4.015 2.604-4.955 1.098-.939 1.996-2.552 1.996-3.583 0-1.032.904-3.024 2.009-4.429 1.105-1.405 2.28-3.909 2.611-5.565.331-1.656 1.677-4.021 2.991-5.255 1.314-1.235 2.389-3.006 2.389-3.935 0-.93.872-2.8 1.938-4.155 1.066-1.355 2.25-3.778 2.631-5.385.382-1.607 1.501-3.821 2.488-4.921.987-1.1 2.112-3.35 2.5-5 .388-1.65 1.498-3.9 2.466-5 .969-1.1 2.077-3.493 2.463-5.318.387-1.824 1.3-3.546 2.031-3.827.73-.28 2.056-2.162 2.947-4.182 1.515-3.436 2.241-4.878 6.005-11.923a116.069 116.069 0 002.614-5.25c2.442-5.334 3.125-6.661 5.914-11.5 1.585-2.75 3.359-6.125 3.942-7.5.583-1.375 1.519-3.175 2.081-4 .561-.825 1.697-3.075 2.524-5 .828-1.925 1.953-4.175 2.5-5 .548-.825 1.673-3.075 2.5-5 .828-1.925 1.949-4.175 2.493-5 .543-.825 1.821-3.306 2.839-5.514s2.587-4.626 3.487-5.373c.901-.747 1.637-2.34 1.637-3.541s1.125-3.708 2.5-5.572c1.375-1.864 2.5-4.131 2.5-5.039 0-.908.891-2.458 1.98-3.443 1.09-.986 2.259-3.276 2.599-5.09.341-1.813 1.449-4.048 2.463-4.966 1.015-.918 2.121-2.926 2.458-4.462.337-1.536 1.479-3.576 2.537-4.534 1.058-.957 2.202-3.224 2.542-5.038.341-1.813 1.449-4.048 2.463-4.966 1.015-.918 2.144-3.085 2.509-4.816.366-1.73 1.468-4.046 2.449-5.146.981-1.1 2.087-3.431 2.456-5.181.37-1.749 1.324-3.721 2.12-4.382.796-.661 2.331-3.054 3.411-5.319s2.352-4.793 2.827-5.618c2.013-3.499 4.2-7.668 5.243-10a81.46 81.46 0 012.5-5 80.337 80.337 0 002.5-5 79.358 79.358 0 012.506-5c.763-1.375 2.261-4.363 3.329-6.64 1.068-2.277 2.395-4.419 2.948-4.761.554-.342 1.295-1.936 1.647-3.541.353-1.606 1.265-3.437 2.026-4.069.762-.632 1.923-2.8 2.581-4.819.658-2.018 2.031-4.743 3.051-6.055 1.02-1.312 1.855-3.201 1.855-4.198 0-.998 1.125-3.028 2.5-4.512 1.375-1.483 2.5-3.444 2.5-4.357 0-.913 1.125-3.184 2.5-5.048 1.375-1.864 2.5-4.184 2.5-5.155 0-.972.863-2.572 1.919-3.556 1.055-.984 2.239-3.139 2.631-4.789.392-1.65 1.491-3.9 2.443-5 .951-1.1 2.226-3.484 2.833-5.297.606-1.813 2.019-4.461 3.138-5.885 1.12-1.423 2.036-3.357 2.036-4.298 0-.94.855-2.484 1.901-3.43 1.046-.947 2.179-3.205 2.52-5.018.34-1.814 1.465-4.064 2.5-5 1.034-.937 2.159-3.187 2.5-5 .34-1.814 1.509-4.104 2.599-5.09 1.089-.985 1.98-2.562 1.98-3.502 0-.941.85-2.791 1.889-4.112 1.039-1.321 2.622-3.969 3.518-5.885.896-1.916 2.256-4.608 3.023-5.983a67.722 67.722 0 002.475-5c.594-1.375 1.523-3.175 2.063-4 .541-.825 1.673-3.075 2.516-5 .843-1.925 2.847-5.75 4.455-8.5 1.607-2.75 3.403-6.125 3.991-7.5.588-1.375 1.522-3.175 2.077-4 .554-.825 1.494-2.625 2.088-4a70.392 70.392 0 012.462-5 80.337 80.337 0 002.5-5 77.903 77.903 0 012.513-5c.767-1.375 2.127-4.067 3.023-5.983.896-1.916 2.479-4.564 3.518-5.885 1.039-1.321 1.889-3.154 1.889-4.073 0-.919 1.125-3.195 2.5-5.059 1.375-1.864 2.5-4.131 2.5-5.039 0-.908.855-2.425 1.901-3.371 1.046-.947 2.182-3.221 2.526-5.054.344-1.833 1.449-4.391 2.454-5.685 1.006-1.293 2.157-4.151 2.558-6.351.401-2.2 1.534-5.35 2.518-7 .984-1.65 2.064-5.498 2.401-8.55.337-3.053 1.508-8.228 2.603-11.5 1.753-5.242 1.993-8.689 2.014-28.982.02-18.001-.318-24.227-1.545-28.5-.864-3.007-2.131-8.619-2.815-12.47-.684-3.852-1.959-8.127-2.834-9.5-.874-1.374-1.894-4.397-2.268-6.719-.373-2.321-1.483-5.246-2.466-6.5-.982-1.253-2.096-3.695-2.473-5.425-.378-1.731-1.562-3.938-2.631-4.905-1.069-.968-1.943-2.453-1.943-3.3 0-.848-1.053-3.141-2.34-5.095a2847.718 2847.718 0 00-4.25-6.436c-1.05-1.586-2.408-3.737-3.018-4.781-.609-1.045-1.826-2.673-2.704-3.618-.877-.945-4.447-5.076-7.931-9.18-3.485-4.103-9.693-10.311-13.796-13.796-4.104-3.484-8.235-7.054-9.18-7.931-.945-.878-2.573-2.095-3.618-2.704-1.044-.61-3.195-1.968-4.781-3.018a2847.718 2847.718 0 00-6.436-4.25c-1.954-1.287-4.247-2.34-5.095-2.34-.847 0-2.332-.874-3.3-1.943-.967-1.069-3.174-2.25-4.905-2.625-1.73-.374-4.271-1.462-5.646-2.418-1.375-.955-4.3-2.062-6.5-2.459-2.2-.398-5.35-1.529-7-2.515-1.65-.985-5.433-2.097-8.406-2.471-2.974-.374-6.799-1.44-8.5-2.37-2.641-1.443-7.057-1.74-30.137-2.026-25.388-.315-27.408-.208-33 1.762-3.276 1.154-8.432 2.373-11.457 2.709-3.025.336-6.85 1.415-8.5 2.399-1.65.984-4.691 2.103-6.759 2.486-2.067.383-4.767 1.477-6 2.431-1.232.954-3.555 2.057-5.162 2.449-1.607.393-4.03 1.587-5.385 2.653-1.355 1.066-3.044 1.938-3.752 1.938-.709 0-2.626 1.125-4.26 2.5s-3.332 2.5-3.773 2.5c-4.585 0-37.239 29.51-40.665 36.75-.586 1.238-1.379 2.25-1.762 2.25-.384 0-2.404 2.813-4.49 6.25-2.086 3.438-4.565 7.15-5.511 8.25-.945 1.1-1.99 3.155-2.323 4.566-.332 1.411-1.516 3.617-2.631 4.903-1.115 1.285-2.027 3.134-2.027 4.107 0 .974-1.125 3.108-2.5 4.742s-2.5 3.606-2.5 4.382c0 .776-1.125 2.936-2.5 4.8-1.375 1.864-2.5 4.114-2.5 5 0 .886-1.125 3.136-2.5 5-1.375 1.864-2.5 4.114-2.5 5 0 .886-1.125 3.136-2.5 5-1.375 1.864-2.5 4.167-2.5 5.118 0 .951-1.125 3.066-2.5 4.7-1.375 1.634-2.5 3.633-2.5 4.441 0 .809-.872 2.58-1.938 3.935-1.066 1.355-2.235 3.647-2.598 5.094-.363 1.446-1.268 3.134-2.011 3.751-.743.617-1.882 2.772-2.532 4.791-.65 2.018-1.686 4.293-2.301 5.054-1.29 1.593-4.756 8.019-7.076 13.116-.876 1.925-2.035 4.175-2.576 5-.54.825-1.477 2.625-2.082 4-.605 1.375-1.504 3.175-1.999 4-.495.825-1.626 3.075-2.515 5-.888 1.925-2.021 4.175-2.518 5-.497.825-1.787 3.353-2.867 5.618s-2.615 4.658-3.411 5.319c-.796.661-1.75 2.633-2.12 4.382-.369 1.75-1.464 4.081-2.433 5.181-.968 1.1-2.032 3.155-2.365 4.566-.332 1.411-1.516 3.617-2.631 4.903-1.115 1.285-2.027 3.107-2.027 4.049 0 .942-.85 2.793-1.889 4.114-1.039 1.321-2.622 3.969-3.518 5.885-.896 1.916-2.295 4.72-3.111 6.233-4.463 8.28-4.873 9.103-7.475 15-.546 1.237-1.435 2.925-1.975 3.75-.541.825-1.7 3.075-2.576 5-2.41 5.294-5.815 11.564-7.126 13.122-.643.764-1.471 2.592-1.84 4.061-.369 1.47-1.362 2.938-2.207 3.262-1.632.626-4.283-1.028-4.283-2.673 0-.541-1.125-2.32-2.5-3.954-1.375-1.634-2.5-3.749-2.5-4.7 0-.951-1.125-3.254-2.5-5.118-1.375-1.864-2.5-4.184-2.5-5.155 0-.972-.863-2.572-1.919-3.556-1.055-.984-2.239-3.139-2.631-4.789-.392-1.65-1.52-3.9-2.507-5-.987-1.1-2.112-3.35-2.5-5-.388-1.65-1.498-3.9-2.466-5-.969-1.1-2.07-3.46-2.447-5.244-.378-1.784-1.294-3.584-2.037-4-.742-.416-2.277-2.781-3.409-5.256-1.132-2.475-2.442-5.175-2.91-6-3.156-5.562-4.604-8.442-7.167-14.25-.546-1.237-1.435-2.925-1.975-3.75-.541-.825-1.66-3.075-2.488-5-.827-1.925-1.952-4.175-2.5-5-.547-.825-1.685-3.075-2.527-5-.842-1.925-2.637-5.3-3.989-7.5-1.352-2.2-3.159-5.575-4.017-7.5-.858-1.925-2.002-4.175-2.543-5-.54-.825-1.469-2.625-2.063-4a70.392 70.392 0 00-2.462-5 80.337 80.337 0 01-2.5-5 81.46 81.46 0 00-2.5-5 80.337 80.337 0 01-2.5-5 77.903 77.903 0 00-2.513-5c-.767-1.375-2.127-4.067-3.023-5.983-.896-1.916-2.479-4.564-3.518-5.885-1.039-1.321-1.889-3.186-1.889-4.144 0-.959-.652-2.284-1.449-2.946-.797-.661-1.987-2.853-2.645-4.872-.658-2.018-2-4.704-2.982-5.967-.982-1.263-2.071-3.595-2.419-5.181-.349-1.586-1.257-3.401-2.018-4.033-.762-.632-1.923-2.8-2.581-4.819-.658-2.018-2.031-4.743-3.051-6.055-1.02-1.312-1.855-3.158-1.855-4.104 0-.945-1.125-2.933-2.5-4.416-1.375-1.484-2.5-3.438-2.5-4.343 0-.904-1.057-3.244-2.348-5.198a4211.413 4211.413 0 00-12.269-18.437c-1.165-1.734-2.853-3.762-3.75-4.507-.898-.745-1.633-1.765-1.633-2.266 0-1.239-16.053-16.736-20.556-19.844-1.992-1.375-5.104-3.738-6.915-5.25s-3.619-2.75-4.017-2.75c-.398 0-2.06-1.125-3.694-2.5s-3.542-2.5-4.24-2.5c-.697 0-2.042-.855-2.988-1.901-.947-1.046-3.205-2.179-5.018-2.52-1.814-.34-4.064-1.465-5-2.5-.937-1.034-3.361-2.188-5.387-2.564-2.027-.376-5.035-1.498-6.685-2.493-1.65-.996-5.004-2.138-7.454-2.539-2.45-.4-6.05-1.527-8-2.503-1.95-.976-7.06-2.067-11.355-2.424-4.294-.358-8.936-1.079-10.315-1.603-3.135-1.192-36.811-1.099-40.876.114" fill="undefined" fill-rule="evenodd"/></svg>